HIERARCHY
ROOT Hips
{
  OFFSET -0.303405 17.6945 -0.630407
  CHANNELS 6 Xposition Yposition Zposition Zrotation Xrotation Yrotation
  JOINT LHipJoint
  {
    OFFSET 0 0 0
    CHANNELS 3 Zrotation Xrotation Yrotation
    JOINT LeftUpLeg
    {
      OFFSET 1.8 -1.4 0.085
      CHANNELS 3 Zrotation Xrotation Yrotation
      JOINT LeftLeg
      {
        OFFSET 2.21502 -6 -0.000122411
        CHANNELS 3 Zrotation Xrotation Yrotation
        JOINT LeftFoot
        {
          OFFSET 2.5 -6.9 0
          CHANNELS 3 Zrotation Xrotation Yrotation
          JOINT LeftToeBase
          {
            OFFSET 0.2 -0.500001 1.95
            CHANNELS 3 Zrotation Xrotation Yrotation
            End Site
            {
              OFFSET 0 0 1
            }
          }
        }
      }
    }
  }
  JOINT RHipJoint
  {
    OFFSET 0 0 0
    CHANNELS 3 Zrotation Xrotation Yrotation
    JOINT RightUpLeg
    {
      OFFSET -1.8 -1.4 0.085
      CHANNELS 3 Zrotation Xrotation Yrotation
      JOINT RightLeg
      {
        OFFSET -2.21498 -6.00001 0
        CHANNELS 3 Zrotation Xrotation Yrotation
        JOINT RightFoot
        {
          OFFSET -2.5 -6.9 0
          CHANNELS 3 Zrotation Xrotation Yrotation
          JOINT RightToeBase
          {
            OFFSET -0.2 -0.500001 1.95
            CHANNELS 3 Zrotation Xrotation Yrotation
            End Site
            {
              OFFSET 0 0 1
            }
          }
        }
      }
    }
  }
  JOINT LowerBack
  {
    OFFSET 0 0 0
    CHANNELS 3 Zrotation Xrotation Yrotation
    JOINT Spine
    {
      OFFSET -0.087 1.94 -0.2889
      CHANNELS 3 Zrotation Xrotation Yrotation
      JOINT Spine1
      {
        OFFSET 0 1.95 0.06
        CHANNELS 3 Zrotation Xrotation Yrotation
        JOINT Neck
        {
          OFFSET 0 0 0
          CHANNELS 3 Zrotation Xrotation Yrotation
          JOINT Neck1
          {
            OFFSET 0 1.6 0.34
            CHANNELS 3 Zrotation Xrotation Yrotation
            JOINT Head
            {
              OFFSET 0 1.667 -0.24
              CHANNELS 3 Zrotation Xrotation Yrotation
              End Site
              {
                OFFSET 0 1.686 -0.12
              }
            }
          }
        }
        JOINT LeftShoulder
        {
          OFFSET 0 0 0
          CHANNELS 3 Zrotation Xrotation Yrotation
          JOINT LeftArm
          {
            OFFSET 2.7 1.55 -0.730001
            CHANNELS 3 Zrotation Xrotation Yrotation
            JOINT LeftForeArm
            {
              OFFSET 5.45001 0.000187676 0.000106411
              CHANNELS 3 Zrotation Xrotation Yrotation
              JOINT LeftHand
              {
                OFFSET 3.45 0 0
                CHANNELS 3 Zrotation Xrotation Yrotation
                JOINT LeftFingerBase
                {
                  OFFSET 0 0 0
                  CHANNELS 3 Zrotation Xrotation Yrotation
                  JOINT LeftHandIndex1
                  {
                    OFFSET 0.750001 0 0
                    CHANNELS 3 Zrotation Xrotation Yrotation
                    End Site
                    {
                      OFFSET 0.6 0 0
                    }
                  }
                }
                JOINT LThumb
                {
                  OFFSET 0 0 0
                  CHANNELS 3 Zrotation Xrotation Yrotation
                  End Site
                  {
                    OFFSET 0.59 0 0.59
                  }
                }
              }
            }
          }
        }
        JOINT RightShoulder
        {
          OFFSET 0 0 0
          CHANNELS 3 Zrotation Xrotation Yrotation
          JOINT RightArm
          {
            OFFSET -2.7 1.55 -0.730001
            CHANNELS 3 Zrotation Xrotation Yrotation
            JOINT RightForeArm
            {
              OFFSET -5.45 0 0
              CHANNELS 3 Zrotation Xrotation Yrotation
              JOINT RightHand
              {
                OFFSET -3.45 0 0
                CHANNELS 3 Zrotation Xrotation Yrotation
                JOINT RightFingerBase
                {
                  OFFSET 0 0 0
                  CHANNELS 3 Zrotation Xrotation Yrotation
                  JOINT RightHandIndex1
                  {
                    OFFSET -0.750001 0 0
                    CHANNELS 3 Zrotation Xrotation Yrotation
                    End Site
                    {
                      OFFSET -0.6 0 0
                    }
                  }
                }
                JOINT RThumb
                {
                  OFFSET 0 0 0
                  CHANNELS 3 Zrotation Xrotation Yrotation
                  End Site
                  {
                    OFFSET -0.59 0 0.59
                  }
                }
              }
            }
          }
        }
      }
    }
  }
}
MOTION
Frames:	12
Frame Time:	0.0416667
-0.303405 17.6945 -0.630407 0.00193637 -0.0014508 -0.0021691 -1.18153e-19 -3.88251e-19 7.76503e-19 -18.5938 -2.43105 5.5617 1.5972 6.09505 -4.16726 -1.38164 -3.75108 -1.56137 1.42398e-15 -2.50997e-14 -4.17603e-15 -1.18153e-19 -3.88251e-19 7.76503e-19 18.3812 -5.83862 -12.5396 1.07534 10.517 9.94541 -0.361868 -4.21641 2.42421 8.30406e-07 6.12851e-14 1.9241e-13 -1.18153e-19 -3.88251e-19 7.76503e-19 -0.00151542 -0.00307269 0.00635211 0.00204418 0.00572937 0.00246587 -0.00170312 -15.9948 0.00199959 -0.00258499 21.0052 0.00264478 -0.00618785 11.007 0.00530997 0.32403 0.00955303 3.45491 -33.7936 -59.1091 -33.7911 6.67925 63.6523 -0.00640563 3.89738 -2.41859 -4.38736 -4.96962e-16 -3.97569e-16 -3.18055e-15 -4.96962e-16 0 -4.77083e-15 -3.97569e-16 -3.97569e-16 -1.59028e-15 -0.323532 0.0181311 -3.41605 22.455 -57.5676 16.1108 -6.65674 59.1437 -0.000275148 0.560973 -1.15236 2.49161 8.13775e-16 3.97569e-16 -3.97569e-16 4.20015e-09 1.16722e-07 2.08087e-07 8.26199e-16 1.98785e-16 -0 
-0.303405 17.6945 -0.627555 0.0019266 -0.0241149 -0.023342 7.29488e-19 0 6.21202e-18 -18.5761 -2.36567 5.63096 1.57881 6.13907 -4.28202 -1.39471 -3.79709 -1.58376 1.04566e-15 -2.50904e-14 -4.14963e-15 7.29488e-19 0 6.21202e-18 18.3759 -5.77042 -12.5913 1.08428 10.5317 9.96522 -0.38409 -4.27324 2.43885 8.30406e-07 6.12831e-14 1.92411e-13 7.29488e-19 0 6.21202e-18 -0.0375137 -0.079884 0.0157491 0.052861 0.0262353 0.00777792 -0.0322594 -15.8941 0.0405055 -0.0500014 21.1058 0.0529492 -0.0607126 11.1387 0.111671 0.324031 0.00955304 3.45377 -33.8119 -59.0496 -33.6704 6.61219 63.6412 -0.00640313 3.98278 -2.40645 -4.40747 0 0 -0 -4.96962e-16 7.95139e-16 -0 9.93923e-17 0 1.59028e-15 -0.323554 0.0181324 -3.34479 22.2827 -57.9144 15.3141 -6.38925 58.064 -0.000266782 0.715073 -1.24274 1.99736 8.57259e-16 -3.97569e-16 -1.98785e-16 4.20015e-09 1.16722e-07 2.08087e-07 8.82107e-16 -7.95139e-16 1.98785e-16 
-0.303405 17.6945 -0.614272 -0.00739233 -0.0437374 -0.116117 -2.5479e-19 0 4.96962e-17 -18.57 -2.27168 5.69356 1.59834 6.08714 -4.23782 -1.43906 -3.82189 -1.59136 -4.82548e-15 -2.5109e-14 -4.16205e-15 -2.5479e-19 0 4.96962e-17 18.3665 -5.71771 -12.6373 1.10706 10.574 10.059 -0.396361 -4.3114 2.46111 8.30406e-07 6.12831e-14 1.92405e-13 -2.5479e-19 0 4.96962e-17 -0.102831 -0.173053 0.0494432 0.181146 0.0690794 0.0201428 -0.0304478 -15.8305 0.0702735 -0.0595241 21.1695 0.0843589 -0.276141 11.2574 0.244506 0.324032 0.00955315 3.44331 -33.8263 -58.9843 -33.3618 6.43815 63.3735 -0.00634339 3.98719 -2.37951 -4.37755 -8.94531e-16 7.95139e-16 -1.59028e-15 -1.98785e-16 0 -0 -7.95139e-16 7.95139e-16 -0 -0.325629 0.0181336 -3.28023 22.1624 -58.0915 14.5258 -6.2303 57.5449 -0.00026297 0.677519 -1.29587 1.81431 2.82647e-15 -3.97569e-16 -9.93923e-17 4.20015e-09 1.16722e-07 2.08087e-07 2.85132e-15 -7.95139e-16 2.98177e-16 
-0.303405 17.6945 -0.604307 -0.02508 -0.0859211 -0.179994 -1.16475e-18 -4.96962e-17 -4.96962e-17 -18.6115 -2.17565 5.67924 1.69001 6.06203 -4.10549 -1.48685 -3.92271 -1.62374 4.85156e-16 -2.50966e-14 -4.17448e-15 -1.16475e-18 -4.96962e-17 -4.96962e-17 18.3142 -5.65402 -12.7429 1.19813 10.6052 10.1602 -0.472893 -4.35245 2.48534 8.30406e-07 6.12878e-14 1.9243e-13 -1.16475e-18 -4.96962e-17 -4.96962e-17 -0.196821 -0.155869 0.00312016 0.295322 -0.0324346 -0.0451686 0.115971 -15.7094 0.0964027 0.0868578 21.2905 0.0691547 -0.748724 11.2486 0.560073 0.324038 0.0095535 3.40796 -33.6327 -59.0543 -32.8061 6.20455 62.9325 -0.00624765 4.01526 -2.38714 -4.09612 1.98785e-16 0 -1.59028e-15 -1.98785e-16 0 -1.59028e-15 3.97569e-16 0 -0 -0.342332 0.0181336 -3.27811 23.0444 -58.2573 14.798 -6.70043 57.7142 -0.000264199 0.626749 -1.28734 2.16039 -2.60905e-16 7.95139e-16 -3.97569e-16 4.20015e-09 1.16722e-07 2.08087e-07 -2.36057e-16 7.95139e-16 -0 
-0.298888 17.6945 -0.599412 -0.00922224 -0.0869115 -0.357325 -2.23244e-18 -2.48481e-17 9.93923e-17 -18.654 -2.06785 5.74448 1.6731 5.92412 -4.05698 -1.42717 -4.00302 -1.65269 -1.88575e-15 -2.51028e-14 -4.12478e-15 -2.23244e-18 -2.48481e-17 9.93923e-17 18.2809 -5.67669 -12.7313 1.17038 10.7107 10.2772 -0.443677 -4.40853 2.51618 8.30406e-07 6.12878e-14 1.92417e-13 -2.23244e-18 -2.48481e-17 9.93923e-17 -0.245299 -0.27426 0.030544 0.45242 0.0485709 -0.044978 0.0980006 -15.6954 0.150559 0.0468254 21.3045 0.132606 -0.903838 11.3779 0.745838 0.32404 0.00955361 3.39643 -33.9487 -59.0308 -32.4541 6.16108 62.7165 -0.00620194 3.57389 -2.34921 -4.19785 -5.96354e-16 2.38542e-15 -1.59028e-15 -7.95139e-16 1.59028e-15 -0 -3.97569e-16 2.38542e-15 -0 -0.361102 0.0181347 -3.21595 22.9056 -58.043 13.9168 -6.37921 57.397 -0.000261908 0.604027 -1.27122 1.85619 3.04389e-16 0 -4.47266e-16 4.20014e-09 1.16722e-07 2.08087e-07 3.29237e-16 0 -4.96962e-17 
-0.291845 17.6945 -0.597731 0.00452568 -0.126654 -0.424147 3.88251e-19 -4.96962e-17 -0 -18.6974 -2.01706 5.75242 1.67754 5.91097 -3.9155 -1.48836 -3.97327 -1.63705 -2.04211e-15 -2.50966e-14 -4.17448e-15 3.88251e-19 -4.96962e-17 -0 18.1649 -5.6956 -12.7988 1.22111 10.8816 10.4426 -0.451689 -4.39898 2.52301 8.30406e-07 6.12862e-14 1.92411e-13 3.88251e-19 -4.96962e-17 -0 -0.209943 -0.243265 -0.0161645 0.437529 -0.0602252 -0.0910139 0.18969 -15.6499 0.16119 0.141194 21.3499 0.112414 -1.16927 11.5445 0.906449 0.331358 0.00955381 3.37675 -33.9667 -58.9929 -32.001 6.30887 63.2594 -0.0063183 3.98323 -2.40071 -4.24342 -1.98785e-16 0 -4.77083e-15 -8.94531e-16 0 -4.77083e-15 -9.93923e-17 0 -3.18055e-15 -0.378689 0.0181346 -3.22393 23.6348 -58.0418 14.1114 -6.50039 57.1769 -0.000260346 0.558701 -1.22702 2.16544 4.4447e-15 -1.59028e-15 -3.97569e-16 4.20015e-09 1.16722e-07 2.08087e-07 4.47266e-15 -1.59028e-15 -0 
-0.282234 17.6945 -0.596553 0.0488234 -0.170345 -0.56711 1.14534e-17 0 1.98785e-16 -18.7954 -1.91948 5.77143 1.68504 5.80037 -3.77289 -1.5173 -3.86354 -1.58812 1.36917e-15 -2.50966e-14 -4.17448e-15 1.14534e-17 0 1.98785e-16 18.0561 -5.74224 -12.8526 1.22287 11.0594 10.5218 -0.468369 -4.45541 2.55634 8.30406e-07 6.12816e-14 1.92411e-13 1.14534e-17 0 1.98785e-16 -0.14598 -0.345756 0.0215225 0.45434 0.0308912 -0.0582255 0.112741 -15.6003 0.163347 0.0581775 21.3996 0.147054 -1.04548 11.6248 0.862648 0.341388 0.00955381 3.37674 -34.3505 -58.8689 -31.7988 6.3907 63.4674 -0.0063642 3.8363 -2.40102 -4.2614 -2.98177e-16 3.97569e-16 -1.59028e-15 -3.97569e-16 1.19271e-15 -0 -1.98785e-16 3.97569e-16 -0 -0.390234 0.0181352 -3.18774 23.5264 -58.0178 13.7284 -6.39628 57.1051 -0.000259842 0.453625 -1.20546 2.3843 -3.72721e-16 -7.95139e-16 -4.96962e-16 4.20015e-09 1.16722e-07 2.08087e-07 -3.47873e-16 -7.95139e-16 -9.93923e-17 
-0.270744 17.6945 -0.595686 0.0453726 -0.269547 -0.658326 2.71776e-18 9.93923e-17 -1.98785e-16 -18.8557 -1.82567 5.80747 1.70309 5.82836 -3.68048 -1.51922 -3.92898 -1.61109 -1.00641e-15 -2.51214e-14 -4.16205e-15 2.71776e-18 9.93923e-17 -1.98785e-16 17.9998 -5.69078 -12.907 1.21714 11.1647 10.6098 -0.432417 -4.48584 2.57878 8.30406e-07 6.12847e-14 1.92424e-13 2.71776e-18 9.93923e-17 -1.98785e-16 0.00511023 -0.328213 0.027308 0.376931 0.0394676 -0.0457836 0.074434 -15.5394 0.162324 0.0192429 21.4605 0.148203 -0.891839 11.7624 0.772501 0.350214 0.00955381 3.3769 -34.6225 -58.8393 -31.6556 6.38477 63.3513 -0.00633849 3.84549 -2.40392 -4.17144 -3.97569e-16 -7.95139e-16 -1.59028e-15 -1.98785e-16 0 -0 -2.98177e-16 -7.95139e-16 -0 -0.395235 0.0181353 -3.18671 23.8641 -58.1693 14.0045 -6.7066 57.3479 -0.000261558 0.270311 -1.22257 2.65222 1.11816e-15 0 -4.96962e-16 4.20015e-09 1.16722e-07 2.08087e-07 1.14922e-15 0 -9.93923e-17 
-0.259878 17.6945 -0.594936 0.0317447 -0.382996 -0.736913 1.16475e-17 4.96962e-17 1.98785e-16 -18.8581 -1.77511 5.87144 1.69621 5.91968 -3.62864 -1.52523 -3.96913 -1.62149 -1.11609e-15 -2.51463e-14 -4.18069e-15 1.16475e-17 4.96962e-17 1.98785e-16 17.9765 -5.64613 -12.9261 1.1869 11.2664 10.6613 -0.439112 -4.4811 2.57837 8.30406e-07 6.12824e-14 1.92411e-13 1.16475e-17 4.96962e-17 1.98785e-16 0.142739 -0.283212 0.0287606 0.324411 0.0775742 -0.0366752 0.0766195 -15.4854 0.149099 0.0245429 21.5146 0.137557 -0.921892 11.9452 0.732416 0.357009 0.0095538 3.37725 -34.8632 -58.827 -31.5957 6.4322 63.3299 -0.00633377 3.92618 -2.40771 -4.08902 0 0 -3.18055e-15 -1.98785e-16 0 -4.77083e-15 -9.93923e-17 0 -1.59028e-15 -0.399536 0.0181353 -3.18612 23.9574 -58.1821 14.0015 -6.85372 57.483 -0.000262524 0.184231 -1.21292 2.81082 -1.2424e-17 7.95139e-16 -4.96962e-16 4.20015e-09 1.16722e-07 2.08087e-07 1.2424e-17 7.95139e-16 -9.93923e-17 
-0.25217 17.6945 -0.599731 0.0300852 -0.455228 -0.767631 -3.10601e-18 -1.98785e-16 -2.98177e-16 -18.8564 -1.76744 5.90334 1.66868 5.99244 -3.61534 -1.55779 -3.97529 -1.62108 1.21808e-15 -2.50717e-14 -4.19311e-15 -3.10601e-18 -1.98785e-16 -2.98177e-16 17.942 -5.66198 -12.9274 1.17126 11.3759 10.6563 -0.452981 -4.48051 2.57705 8.30406e-07 6.12925e-14 1.92386e-13 -3.10601e-18 -1.98785e-16 -2.98177e-16 0.175976 -0.256243 0.0287768 0.334544 0.136177 -0.0408251 0.138345 -15.4975 0.118899 0.102212 21.5024 0.0868026 -1.18869 12.4294 0.738948 0.361489 0.0095538 3.37777 -35.1156 -58.8116 -31.6405 6.45111 63.2232 -0.00631039 3.96309 -2.41691 -4.00759 0 0 -1.59028e-15 9.93923e-17 0 -1.59028e-15 -9.93923e-17 0 -0 -0.403806 0.0181353 -3.18575 23.9194 -58.1071 13.7672 -6.75714 57.3229 -0.00026138 0.0861044 -1.18229 2.79917 -2.49102e-15 -1.59028e-15 -2.48481e-16 4.20015e-09 1.16722e-07 2.08087e-07 -2.45996e-15 -1.59028e-15 1.49089e-16 
-0.250804 17.6945 -0.609024 0.030793 -0.491058 -0.653382 -3.88251e-18 0 -0 -18.8286 -1.81924 5.90937 1.62448 6.08676 -3.71649 -1.6062 -3.91857 -1.61212 -1.14909e-15 -2.50717e-14 -4.18069e-15 -3.88251e-18 0 -0 17.9276 -5.67451 -12.9223 1.15832 11.3903 10.5463 -0.434227 -4.47955 2.5753 8.30406e-07 6.12878e-14 1.92399e-13 -3.88251e-18 0 -0 0.0980619 -0.263983 -0.0322005 0.420136 0.254081 -0.116986 0.180811 -15.5161 0.0778319 0.163716 21.4838 0.0300816 -1.27933 12.8678 0.663078 0.364642 0.00955379 3.37844 -35.4583 -58.8393 -31.9026 6.59487 63.2428 -0.00631467 4.03307 -2.44704 -3.93184 -5.96354e-16 7.95139e-16 -0 -3.97569e-16 7.95139e-16 -1.59028e-15 -6.95746e-16 7.95139e-16 1.59028e-15 -0.408627 0.0181353 -3.18538 23.7008 -57.9067 13.2635 -6.5239 57.154 -0.000260185 0.0253422 -1.10499 2.91648 1.22377e-15 0 -3.97569e-16 4.20015e-09 1.16722e-07 2.08087e-07 1.25483e-15 0 -0 
-0.249713 17.6945 -0.620028 0.0334988 -0.469008 -0.432634 -1.16475e-17 9.93923e-17 -9.93923e-17 -18.7788 -1.90392 5.90135 1.56229 6.14292 -3.96425 -1.63991 -3.8096 -1.57754 -3.39724e-15 -2.50717e-14 -4.1869e-15 -1.16475e-17 9.93923e-17 -9.93923e-17 17.9655 -5.71134 -12.8585 1.11154 11.3052 10.3203 -0.390214 -4.45092 2.55143 8.30406e-07 6.12754e-14 1.92411e-13 -1.16475e-17 9.93923e-17 -9.93923e-17 -0.0314769 -0.390027 -0.145562 0.505715 0.465665 -0.245338 0.234586 -15.492 0.0139741 0.245599 21.5078 -0.05448 -1.28145 12.9932 0.507961 0.365711 0.0103602 3.37928 -35.7157 -58.8631 -32.1743 6.68181 63.2054 -0.00630651 3.98508 -2.4694 -3.85229 -4.96962e-16 0 -0 -9.93923e-17 -7.95139e-16 -0 -5.96354e-16 0 1.59028e-15 -0.413868 0.0181353 -3.18481 23.5077 -57.6873 12.7342 -6.31388 57.0623 -0.000259542 -0.0156808 -1.03146 3.05819 -6.21202e-18 0 -4.96962e-16 4.20015e-09 1.16722e-07 2.08087e-07 1.86361e-17 -3.97569e-16 -9.93923e-17 
